# xmcd
#
# Track frame offsets:
#	150
#	14509
#	28543
#	42660
#	56426
#	71500
#	85731
#	101283
#	116394
#	129610
#	143286
#	157080
#
# Disc length: 2273 seconds
#
# Revision: 1
# Processed by: cddbd v1.5.2PL0 Copyright (c) Steve Scherf et al.
# Submitted via: audiograbber 1.83.01
#
DISCID=9608df0c
DTITLE=Wirbelwind - Ich will zu dir
DYEAR=2014
DGENRE=Schlager
TTITLE0=Ich will zu dir
TTITLE1=Ich leg mein Herz in deine Hand
TTITLE2=Der schönste Platz
TTITLE3=Für dich lebe ich
TTITLE4=s Glück im Facebook
TTITLE5=Ich will auf die Piste
TTITLE6=Insel meiner Träume
TTITLE7=Wenn ein Herz aus Liebe weint
TTITLE8=Sag mir wie viel Sterne hat die Nacht
TTITLE9=Kinder sind das größte auf der Welt
TTITLE10=Wahre Freunde
TTITLE11=Weil mit dir alles fällt und steht
EXTD=
EXTT0=
EXTT1=
EXTT2=
EXTT3=
EXTT4=
EXTT5=
EXTT6=
EXTT7=
EXTT8=
EXTT9=
EXTT10=
EXTT11=
PLAYORDER=
